<?xml version="1.0" standalone="no"?><!DOCTYPE svg PUBLIC "-//W3C//DTD SVG 1.1//EN" "http://www.w3.org/Graphics/SVG/1.1/DTD/svg11.dtd"><svg t="1540629796284" class="icon" style="" viewBox="0 0 1024 1024" version="1.1" xmlns="http://www.w3.org/2000/svg" p-id="4519" xmlns:xlink="http://www.w3.org/1999/xlink" width="200" height="200"><defs><style type="text/css"></style></defs><path d="M384 32h-32C175.2 32 32 175.2 32 352v32c0 17.6 14.4 32 32 32s32-14.4 32-32v-32c0-141.2 114.8-256 256-256h32c17.6 0 32-14.4 32-32s-14.4-32-32-32zM384 928h-32c-141.2 0-256-114.8-256-256v-32c0-17.6-14.4-32-32-32s-32 14.4-32 32v32c0 176.8 143.2 320 320 320h32c17.6 0 32-14.4 32-32s-14.4-32-32-32zM960 608c-17.6 0-32 14.4-32 32v32c0 141.2-114.8 256-256 256h-32c-17.6 0-32 14.4-32 32s14.4 32 32 32h32c176.8 0 320-143.2 320-320v-32c0-17.6-14.4-32-32-32zM672 32h-32c-17.6 0-32 14.4-32 32s14.4 32 32 32h32c141.2 0 256 114.8 256 256v32c0 17.6 14.4 32 32 32s32-14.4 32-32v-32c0-176.8-143.2-320-320-320zM960 480H64c-17.6 0-32 14.4-32 32s14.4 32 32 32h896c17.6 0 32-14.4 32-32s-14.4-32-32-32z" fill="" p-id="4520"></path></svg>